<svg width="24" height="24" viewBox="0 0 24 24" fill="none" xmlns="http://www.w3.org/2000/svg">
<path d="M4 20C3.45 20 2.97917 19.8042 2.5875 19.4125C2.19583 19.0208 2 18.55 2 18V6C2 5.45 2.19583 4.97917 2.5875 4.5875C2.97917 4.19583 3.45 4 4 4H20C20.55 4 21.0208 4.19583 21.4125 4.5875C21.8042 4.97917 22 5.45 22 6V18C22 18.55 21.8042 19.0208 21.4125 19.4125C21.0208 19.8042 20.55 20 20 20H4ZM6.5 15H7.65V9H6.75L5 10.25L5.6 11.15L6.5 10.5V15ZM9.6 15H13.5V14H11.15L11.1 13.95C11.45 13.6167 11.7375 13.3333 11.9625 13.1C12.1875 12.8667 12.3667 12.6833 12.5 12.55C12.8 12.25 13.025 11.95 13.175 11.65C13.325 11.35 13.4 11.0333 13.4 10.7C13.4 10.2167 13.2167 9.8125 12.85 9.4875C12.4833 9.1625 12.0167 9 11.45 9C11.0167 9 10.625 9.125 10.275 9.375C9.925 9.625 9.68333 9.95 9.55 10.35L10.55 10.75C10.6333 10.5333 10.7542 10.3625 10.9125 10.2375C11.0708 10.1125 11.25 10.05 11.45 10.05C11.7 10.05 11.9042 10.1167 12.0625 10.25C12.2208 10.3833 12.3 10.55 12.3 10.75C12.3 10.9333 12.2667 11.1042 12.2 11.2625C12.1333 11.4208 11.9833 11.6167 11.75 11.85L10.95 12.65L9.6 14V15ZM17 15C17.6 15 18.0833 14.8333 18.45 14.5C18.8167 14.1667 19 13.7333 19 13.2C19 12.9 18.9167 12.6333 18.75 12.4C18.5833 12.1667 18.35 11.9833 18.05 11.85V11.8C18.2833 11.6667 18.4667 11.4958 18.6 11.2875C18.7333 11.0792 18.8 10.8333 18.8 10.55C18.8 10.1 18.625 9.72917 18.275 9.4375C17.925 9.14583 17.4833 9 16.95 9C16.5333 9 16.1458 9.12083 15.7875 9.3625C15.4292 9.60417 15.2 9.9 15.1 10.25L16.1 10.65C16.1667 10.45 16.275 10.2917 16.425 10.175C16.575 10.0583 16.75 10 16.95 10C17.1667 10 17.3458 10.0625 17.4875 10.1875C17.6292 10.3125 17.7 10.4667 17.7 10.65C17.7 10.8833 17.6167 11.0667 17.45 11.2C17.2833 11.3333 17.0667 11.4 16.8 11.4H16.35V12.4H16.85C17.1833 12.4 17.4417 12.4667 17.625 12.6C17.8083 12.7333 17.9 12.9167 17.9 13.15C17.9 13.3667 17.8083 13.5542 17.625 13.7125C17.4417 13.8708 17.2333 13.95 17 13.95C16.7167 13.95 16.5 13.8875 16.35 13.7625C16.2 13.6375 16.0667 13.4167 15.95 13.1L14.95 13.5C15.0667 13.9833 15.3042 14.3542 15.6625 14.6125C16.0208 14.8708 16.4667 15 17 15Z" fill="#40B6E0"/>
</svg>
